<?xml version="1.0" encoding="iso-8859-1"?>
<!-- Generator: Adobe Illustrator 19.0.0, SVG Export Plug-In . SVG Version: 6.00 Build 0)  -->
<svg version="1.1" id="Capa_1" xmlns="http://www.w3.org/2000/svg" xmlns:xlink="http://www.w3.org/1999/xlink" x="0px" y="0px"
	 viewBox="0 0 496.485 496.485" style="enable-background:new 0 0 496.485 496.485;" xml:space="preserve">
<circle style="fill:#E1E6E9;" cx="248.242" cy="248.242" r="248.242"/>
<rect x="69.042" y="100.073" style="fill:#FFFFFF;" width="318.836" height="48.873"/>
<path style="fill:#193651;" d="M387.879,155.927H69.042c-3.879,0-6.982-3.103-6.982-6.982v-48.873c0-3.879,3.103-6.982,6.982-6.982
	h318.836c3.879,0,6.982,3.103,6.982,6.982v48.873C394.861,152.824,391.758,155.927,387.879,155.927z M76.024,141.964h304.873
	v-34.909H76.024V141.964z"/>
<rect x="312.63" y="74.473" style="fill:#FFFFFF;" width="29.479" height="49.648"/>
<path style="fill:#193651;" d="M341.333,131.879h-29.479c-3.879,0-6.982-3.103-6.982-6.982V75.248c0-3.879,3.103-6.982,6.982-6.982
	h29.479c3.879,0,6.982,3.103,6.982,6.982v49.648C348.315,128.776,345.212,131.879,341.333,131.879z M318.836,117.915h15.515V82.23
	h-15.515V117.915z"/>
<rect x="116.364" y="74.473" style="fill:#FFFFFF;" width="29.479" height="49.648"/>
<path style="fill:#193651;" d="M145.067,131.879h-28.703c-3.879,0-6.982-3.103-6.982-6.982V75.248c0-3.879,3.103-6.982,6.982-6.982
	h29.479c3.879,0,6.982,3.103,6.982,6.982v49.648C152.048,128.776,148.945,131.879,145.067,131.879z M122.57,117.915h15.515V82.23
	H122.57V117.915z"/>
<polygon style="fill:#FFFFFF;" points="387.879,148.945 69.042,148.945 69.042,381.673 271.515,381.673 387.879,264.533 "/>
<path style="fill:#193651;" d="M271.515,388.655H69.818c-3.879,0-6.982-3.103-6.982-6.982V148.945c0-3.879,3.103-6.982,6.982-6.982
	h318.061c3.879,0,6.982,3.103,6.982,6.982v116.364c0,1.552-0.776,3.879-2.327,4.655L276.17,386.327
	C274.618,387.879,273.067,388.655,271.515,388.655z M76.024,374.691h192.388l112.485-112.485V155.927H76.024V374.691z"/>
<path style="fill:#FFFFFF;" d="M234.279,398.739L217.212,460.8c-1.552,4.655,3.103,9.309,7.758,7.758l62.836-17.067l150.497-150.497
	l-53.527-52.752L234.279,398.739z"/>
<path style="fill:#193651;" d="M223.418,475.539L223.418,475.539c-3.879,0-7.758-2.327-10.861-5.43
	c-2.327-3.103-3.103-7.758-2.327-11.636l17.842-64.388L384,238.158l62.836,62.836L291.685,457.697l-64.388,17.842
	C225.745,475.539,224.97,475.539,223.418,475.539z M240.485,401.842l-16.291,59.733l59.733-16.291l144.291-144.291l-43.442-43.442
	L240.485,401.842z"/>
<rect x="230.485" y="335.423" transform="matrix(-0.7071 0.7071 -0.7071 -0.7071 818.8404 365.8033)" style="fill:#4FBF9F;" width="206.35" height="34.133"/>
<path style="fill:#FDBF5E;" d="M234.279,398.739L217.212,460.8c-1.552,4.655,3.103,9.309,7.758,7.758l62.061-17.067"/>
<path style="fill:#193651;" d="M214.109,471.661c-3.103-3.103-4.655-8.533-3.103-13.188l17.067-62.061l13.188,3.879l-17.067,61.285
	l61.285-17.067l3.879,13.188l-62.061,17.067C222.642,476.315,217.988,475.539,214.109,471.661z"/>
<path style="fill:#F16051;" d="M458.473,259.879l-31.806-31.806c-6.206-6.206-15.515-6.206-20.945,0l-20.945,20.17l53.527,53.527
	l20.17-20.17C463.903,275.394,463.903,266.085,458.473,259.879z"/>
<g>
	<path style="fill:#193651;" d="M438.303,311.079l-63.612-62.836l24.824-24.824c8.533-8.533,22.497-8.533,31.03,0l31.806,31.806
		c3.879,3.879,6.206,9.309,6.206,15.515s-2.327,11.636-6.206,15.515L438.303,311.079z M394.085,248.242l43.442,43.442l15.515-15.515
		c1.552-1.552,2.327-3.879,2.327-5.43c0-2.327-0.776-3.879-2.327-5.43l-31.806-32.582c-3.103-3.103-8.533-3.103-11.636,0
		L394.085,248.242z"/>
	<path style="fill:#193651;" d="M222.642,442.958l-5.43,17.842c-1.552,4.655,3.103,9.309,7.758,7.758l17.842-4.655L222.642,442.958z
		"/>
	<path style="fill:#193651;" d="M223.418,475.539L223.418,475.539c-3.879,0-7.758-2.327-10.861-5.43
		c-2.327-3.103-3.103-7.758-2.327-11.636l7.758-29.479l37.236,37.236l-29.479,7.758C225.745,475.539,224.97,475.539,223.418,475.539
		z M225.745,456.145l-1.552,5.43l5.43-1.552L225.745,456.145z"/>
</g>
<rect x="216.436" y="173.77" style="fill:#2EA2DB;" width="24.824" height="24.824"/>
<rect x="256.776" y="173.77" style="fill:#F16051;" width="24.824" height="24.824"/>
<g>
	<rect x="297.115" y="173.77" style="fill:#2EA2DB;" width="24.824" height="24.824"/>
	<rect x="338.23" y="173.77" style="fill:#2EA2DB;" width="24.824" height="24.824"/>
	<rect x="94.642" y="213.333" style="fill:#2EA2DB;" width="24.824" height="24.824"/>
	<rect x="134.982" y="213.333" style="fill:#2EA2DB;" width="24.824" height="24.824"/>
	<rect x="176.097" y="213.333" style="fill:#2EA2DB;" width="24.824" height="24.824"/>
	<rect x="216.436" y="213.333" style="fill:#2EA2DB;" width="24.824" height="24.824"/>
	<rect x="256.776" y="213.333" style="fill:#2EA2DB;" width="24.824" height="24.824"/>
	<rect x="297.115" y="213.333" style="fill:#2EA2DB;" width="24.824" height="24.824"/>
	<rect x="338.23" y="213.333" style="fill:#2EA2DB;" width="24.824" height="24.824"/>
	<rect x="94.642" y="252.897" style="fill:#2EA2DB;" width="24.824" height="24.824"/>
	<rect x="134.982" y="252.897" style="fill:#2EA2DB;" width="24.824" height="24.824"/>
	<rect x="176.097" y="252.897" style="fill:#2EA2DB;" width="24.824" height="24.824"/>
	<rect x="216.436" y="252.897" style="fill:#2EA2DB;" width="24.824" height="24.824"/>
</g>
<rect x="256.776" y="252.897" style="fill:#F16051;" width="24.824" height="24.824"/>
<rect x="297.115" y="252.897" style="fill:#2EA2DB;" width="24.824" height="24.824"/>
<rect x="94.642" y="292.461" style="fill:#F16051;" width="24.824" height="24.824"/>
<g>
	<rect x="134.982" y="292.461" style="fill:#2EA2DB;" width="24.824" height="24.824"/>
	<rect x="176.097" y="292.461" style="fill:#2EA2DB;" width="24.824" height="24.824"/>
	<rect x="216.436" y="292.461" style="fill:#2EA2DB;" width="24.824" height="24.824"/>
	<rect x="256.776" y="292.461" style="fill:#2EA2DB;" width="24.824" height="24.824"/>
	<rect x="94.642" y="331.249" style="fill:#2EA2DB;" width="24.824" height="24.824"/>
	<rect x="134.982" y="331.249" style="fill:#2EA2DB;" width="24.824" height="24.824"/>
	<rect x="176.097" y="331.249" style="fill:#2EA2DB;" width="24.824" height="24.824"/>
</g>
<rect x="357.416" y="315.423" transform="matrix(-0.7072 0.707 -0.707 -0.7072 849.4956 291.456)" style="fill:#193651;" width="13.963" height="12.412"/>
<rect x="332.66" y="339.989" transform="matrix(-0.707 0.7072 -0.7072 -0.707 824.6016 350.7596)" style="fill:#193651;" width="13.963" height="12.412"/>
<rect x="308.39" y="363.961" transform="matrix(-0.7073 0.7069 -0.7069 -0.7073 800.1102 409.0492)" style="fill:#193651;" width="13.963" height="12.412"/>
<g>
</g>
<g>
</g>
<g>
</g>
<g>
</g>
<g>
</g>
<g>
</g>
<g>
</g>
<g>
</g>
<g>
</g>
<g>
</g>
<g>
</g>
<g>
</g>
<g>
</g>
<g>
</g>
<g>
</g>
</svg>
