<?xml version="1.0" encoding="iso-8859-1"?>
<!-- Generator: Adobe Illustrator 19.0.0, SVG Export Plug-In . SVG Version: 6.00 Build 0)  -->
<svg xmlns="http://www.w3.org/2000/svg" xmlns:xlink="http://www.w3.org/1999/xlink" version="1.1" id="Layer_1" x="0px" y="0px" viewBox="0 0 419.559 419.559" style="enable-background:new 0 0 419.559 419.559;" xml:space="preserve" width="512" height="512">
<g>
	<circle style="fill:#E8E8E8;" cx="209.78" cy="209.779" r="209.779"/>
	<path style="fill:#C3C6C8;" d="M258.469,277.399l31.98,43.38l-30.1,92.62l0.01,0.02c-16.2,4.01-33.14,6.14-50.58,6.14   s-34.38-2.13-50.58-6.14l0.01-0.02l-30.1-92.62l31.98-43.38H258.469z"/>
	<path style="fill:#D5D6D8;" d="M419.02,224.629h0.02c-2.46,35.14-13.57,67.9-31.21,96.15h-0.01h-97.37l-31.98-43.38l30.1-92.62   l51.66-17.39L419.02,224.629z"/>
	<path style="fill:#C3C6C8;" d="M209.78,72.539v55l-78.79,57.24l-51.66-17.39l-30.1-92.62l-0.01-0.01   c21.84-25.94,49.85-46.52,81.77-59.46L209.78,72.539z"/>
	<polygon style="fill:#5C6670;" points="161.087,277.399 130.993,184.78 209.78,127.539 288.566,184.78 258.472,277.399  "/>
	<path style="fill:#5C6670;" d="M209.78,0c-27.861,0-54.447,5.445-78.77,15.307l78.77,57.23l78.77-57.23   C264.227,5.445,237.641,0,209.78,0z"/>
	<path style="fill:#454F58;" d="M49.233,74.77L49.233,74.77C18.517,111.257,0,158.352,0,209.779c0,4.993,0.186,9.941,0.53,14.847   l0.01,0.004l78.786-57.242L49.233,74.77z"/>
	<path style="fill:#454F58;" d="M129.113,320.779H31.758c28.455,45.539,73.889,79.368,127.446,92.627l0.003-0.008L129.113,320.779z"/>
	<path style="fill:#5C6670;" d="M370.326,74.77l0.001,0c30.715,36.487,49.231,83.583,49.231,135.01c0,4.993-0.186,9.941-0.53,14.847   l-0.01,0.004l-78.786-57.242L370.326,74.77z"/>
	<path style="fill:#454F58;" d="M290.446,320.779h97.355c-28.455,45.539-73.889,79.368-127.446,92.627l-0.003-0.008L290.446,320.779   z"/>
</g>















</svg>
